HIERARCHY
ROOT Pelvis
{
	OFFSET 0.000000 0.000000 0.000000
	CHANNELS 6 Xposition Yposition Zposition Xrotation Yrotation Zrotation
	JOINT LeftUpLeg_virtual
	{
		OFFSET 0.000000 0.000000 0.000000
		CHANNELS 3 Xrotation Yrotation Zrotation
		JOINT LeftUpLeg
		{
			OFFSET 18.735201 -5.666702 -4.541200
			CHANNELS 3 Xrotation Yrotation Zrotation
			JOINT LeftLeg
			{
				OFFSET -0.021200 -31.938179 0.493100
				CHANNELS 3 Xrotation Yrotation Zrotation
				JOINT LeftFoot
				{
					OFFSET 0.021200 -31.938179 -4.336299
					CHANNELS 3 Xrotation Yrotation Zrotation
					JOINT LeftToeBase
					{
						OFFSET 0.943001 -26.722000 15.023500
						CHANNELS 3 Xrotation Yrotation Zrotation
						End Site
						{
							OFFSET 0 0 0
						}
					}
				}
			}
		}
	}
	JOINT RightUpLeg_virtual
	{
		OFFSET 0.000000 0.000000 0.000000
		CHANNELS 3 Xrotation Yrotation Zrotation
		JOINT RightUpLeg
		{
			OFFSET -18.735201 -5.666702 -4.541200
			CHANNELS 3 Xrotation Yrotation Zrotation
			JOINT RightLeg
			{
				OFFSET 0.018946 -31.938133 0.493100
				CHANNELS 3 Xrotation Yrotation Zrotation
				JOINT RightFoot
				{
					OFFSET -0.018946 -31.938126 -4.336299
					CHANNELS 3 Xrotation Yrotation Zrotation
					JOINT RightToeBase
					{
						OFFSET -0.943001 -26.722004 15.023500
						CHANNELS 3 Xrotation Yrotation Zrotation
						End Site
						{
							OFFSET 0 0 0
						}
					}
				}
			}
		}
	}
	JOINT Hips_virtual
	{
		OFFSET 0.000000 0.000000 0.000000
		CHANNELS 3 Xrotation Yrotation Zrotation
		JOINT Hips
		{
			OFFSET -0.000000 -0.000000 -0.000000
			CHANNELS 3 Xrotation Yrotation Zrotation
			JOINT Spine
			{
				OFFSET 0.000000 10.199997 -0.299500
				CHANNELS 3 Xrotation Yrotation Zrotation
				JOINT Spine1
				{
					OFFSET 0.000000 11.900002 -1.516600
					CHANNELS 3 Xrotation Yrotation Zrotation
					JOINT Spine2
					{
						OFFSET 0.000000 13.600006 -2.842500
						CHANNELS 3 Xrotation Yrotation Zrotation
						JOINT Neck_virtual
						{
							OFFSET 0.000000 0.000000 0.000000
							CHANNELS 3 Xrotation Yrotation Zrotation
							JOINT Neck
							{
								OFFSET 0.000000 9.624100 -2.890100
								CHANNELS 3 Xrotation Yrotation Zrotation
								JOINT Head
								{
									OFFSET 0.000000 14.068802 -1.351900
									CHANNELS 3 Xrotation Yrotation Zrotation
									End Site
									{
										OFFSET 0 0 0
									}
								}
							}
						}
						JOINT LeftShoulder_virtual
						{
							OFFSET 0.000000 0.000000 0.000000
							CHANNELS 3 Xrotation Yrotation Zrotation
							JOINT LeftShoulder
							{
								OFFSET 15.263000 10.923401 -0.547700
								CHANNELS 3 Xrotation Yrotation Zrotation
								JOINT LeftArm
								{
									OFFSET 25.438599 -2.830597 -13.032500
									CHANNELS 3 Xrotation Yrotation Zrotation
									JOINT LeftForeArm
									{
										OFFSET 29.960503 0.000000 0.000000
										CHANNELS 3 Xrotation Yrotation Zrotation
										JOINT LeftHand
										{
											OFFSET 27.849251 0.000000 0.000000
											CHANNELS 3 Xrotation Yrotation Zrotation
											End Site
											{
												OFFSET 0 0 0
											}
										}
									}
								}
							}
						}
						JOINT RightShoulder_virtual
						{
							OFFSET 0.000000 0.000000 0.000000
							CHANNELS 3 Xrotation Yrotation Zrotation
							JOINT RightShoulder
							{
								OFFSET -15.263000 10.923401 -0.547700
								CHANNELS 3 Xrotation Yrotation Zrotation
								JOINT RightArm
								{
									OFFSET -25.438599 -2.830597 -13.032500
									CHANNELS 3 Xrotation Yrotation Zrotation
									JOINT RightForeArm
									{
										OFFSET -29.960503 0.000000 0.000000
										CHANNELS 3 Xrotation Yrotation Zrotation
										JOINT RightHand
										{
											OFFSET -27.849251 0.000000 0.000000
											CHANNELS 3 Xrotation Yrotation Zrotation
											End Site
											{
												OFFSET 0 0 0
											}
										}
									}
								}
							}
						}
					}
				}
			}
		}
	}
}
MOTION
Frames: 10
Frame Time: 0.03333333
-8.669254 77.503220 13.649885 0.000000 0.000000 0.000000 -1.077476 -77.167170 -0.606251 -46.862409 16.631104 57.097257 39.802337 -2.101536 3.000899 4.144480 -3.399211 -19.679602 0.000000 0.000000 0.000000 -1.481126 -76.523377 -1.158075 -40.863458 17.881739 -26.874952 67.592577 -2.104569 1.117095 -25.986826 3.218203 9.604944 0.000000 0.000000 0.000000 0.843653 -75.481090 1.472657 -0.612860 0.106550 0.156145 -0.485444 7.266071 2.055100 5.840944 -3.812326 0.220355 0.000000 0.000000 0.000000 4.172255 -1.562004 -1.169423 3.126997 3.935822 1.551784 0.000000 0.000000 0.000000 6.199900 -2.297502 -0.972818 -9.442498 -6.998807 -14.161343 -34.886322 -12.436092 -18.714018 -12.411027 -36.882803 -12.226777 0.000000 0.000000 0.000000 1.685493 -1.297536 -1.952655 23.378062 15.178495 -7.761706 -27.421953 69.066757 42.667598 20.256384 61.418168 -32.650039 0.000000 0.000000 0.000000 
-8.585033 77.910446 13.366905 0.000000 0.000000 0.000000 -1.852901 -77.593708 -1.641354 -45.943711 17.347849 57.057508 38.600288 -2.249036 2.949855 4.385377 -3.699163 -19.763134 0.000000 0.000000 0.000000 -2.625829 -77.062060 -2.364621 -41.392545 17.618137 -26.466630 67.473752 -2.528535 1.361975 -25.881013 2.893396 9.228401 0.000000 0.000000 0.000000 -0.252725 -76.208041 0.227087 -0.600761 0.114831 0.160646 -0.517294 7.106132 2.215343 5.629252 -3.997640 0.287367 0.000000 0.000000 0.000000 3.816234 -1.723922 -1.127169 3.195504 3.899322 1.650984 0.000000 0.000000 0.000000 6.172113 -2.420472 -0.932918 -9.003006 -6.692505 -14.591915 -34.911576 -11.245592 -19.366761 -11.787973 -35.741519 -11.782107 0.000000 0.000000 0.000000 1.684410 -1.512643 -1.980041 23.236966 15.347288 -7.717576 -25.854517 68.249928 41.976785 19.577021 60.777824 -31.231747 0.000000 0.000000 0.000000 
-8.504225 78.639526 13.145755 0.000000 0.000000 0.000000 -3.604622 -78.293591 -3.739372 -43.874004 18.409481 56.718775 36.512897 -2.235997 3.056735 6.345673 -4.145451 -19.461900 0.000000 0.000000 0.000000 -4.530659 -77.758220 -4.538677 -41.998082 17.508077 -25.956293 65.995296 -2.757951 1.719988 -23.577224 3.155806 10.730797 0.000000 0.000000 0.000000 -2.662450 -77.189887 -2.517385 -0.591309 0.188561 0.156536 -0.415107 6.842385 2.677454 5.382299 -4.164852 0.429494 0.000000 0.000000 0.000000 3.076252 -1.902370 -0.984792 3.191873 3.907360 1.757518 0.000000 0.000000 0.000000 6.034604 -2.553913 -0.720442 -8.853380 -6.132517 -14.838564 -33.008382 -10.374652 -20.352038 -11.626078 -35.935968 -11.505754 0.000000 0.000000 0.000000 1.522478 -1.746569 -1.924659 22.739061 15.663690 -7.045063 -22.182636 66.332755 39.417469 18.775154 60.002652 -29.015125 0.000000 0.000000 0.000000 
-8.445032 79.450798 13.047038 0.000000 0.000000 0.000000 -6.317814 -78.813375 -6.739278 -41.490940 19.499925 56.177135 34.566867 -2.067679 3.286610 9.114256 -4.521959 -18.848334 0.000000 0.000000 0.000000 -6.956359 -78.324252 -7.270847 -42.571186 17.729947 -25.253996 63.943411 -2.755329 1.994365 -19.137758 4.071343 13.509151 0.000000 0.000000 0.000000 -5.973493 -77.943701 -6.216902 -0.584398 0.285502 0.146288 -0.185347 6.564606 3.218986 5.188285 -4.264593 0.628797 0.000000 0.000000 0.000000 2.200116 -2.057083 -0.740675 3.170238 3.940603 1.824831 0.000000 0.000000 0.000000 5.852786 -2.666561 -0.357582 -8.930062 -5.606771 -15.234640 -28.113506 -10.497179 -21.671089 -12.014131 -38.444642 -11.722557 0.000000 0.000000 0.000000 1.218348 -1.956957 -1.773312 21.850079 15.943975 -5.715295 -17.684036 63.417726 36.028719 17.822339 59.030538 -25.995379 0.000000 0.000000 0.000000 
-8.481529 80.185654 12.926094 0.000000 0.000000 0.000000 -9.331402 -78.812009 -9.847079 -39.157188 20.200810 55.367593 33.468234 -2.008789 3.662813 10.967294 -4.904221 -18.342859 0.000000 0.000000 0.000000 -9.373102 -78.427948 -9.845335 -42.539361 17.870797 -24.327513 62.021246 -3.158665 2.116301 -15.572461 4.691892 15.656701 0.000000 0.000000 0.000000 -9.078756 -78.132911 -9.616447 -0.569000 0.354444 0.148345 0.051079 6.241628 3.612669 5.090250 -4.295965 0.917481 0.000000 0.000000 0.000000 1.520183 -2.179257 -0.376849 3.135711 3.986813 1.803751 0.000000 0.000000 0.000000 5.644675 -2.740389 0.107796 -9.104068 -5.178329 -15.924405 -19.476083 -12.115174 -22.945493 -13.090723 -43.485117 -12.542577 0.000000 0.000000 0.000000 0.755816 -2.125309 -1.487841 20.579232 15.996764 -3.715442 -13.252281 59.493045 33.089483 16.498872 57.599054 -21.991406 0.000000 0.000000 0.000000 
-8.612867 80.762192 12.934442 0.000000 0.000000 0.000000 -11.396922 -78.210632 -11.760084 -36.867319 20.325308 54.235913 32.944434 -2.300149 4.196318 11.122196 -5.589635 -18.538416 0.000000 0.000000 0.000000 -10.711366 -77.841624 -11.130637 -41.254944 17.582720 -23.418041 60.264542 -4.465947 2.075629 -14.940870 4.125931 16.202735 0.000000 0.000000 0.000000 -10.972216 -77.659913 -11.573052 -0.567175 0.395446 0.164309 0.251557 5.827978 3.691550 5.123301 -4.303847 1.312018 0.000000 0.000000 0.000000 1.222150 -2.272002 0.084983 3.081199 4.029865 1.681088 0.000000 0.000000 0.000000 5.426220 -2.819228 0.615784 -9.296720 -5.047893 -16.961221 -8.386935 -15.840937 -23.093334 -15.104724 -50.741550 -14.224450 0.000000 0.000000 0.000000 0.192748 -2.238106 -1.017949 19.057756 15.748704 -1.114121 -9.537834 54.899995 31.514141 14.616098 55.391554 -17.024820 0.000000 0.000000 0.000000 
-8.703268 81.230965 13.108464 0.000000 0.000000 0.000000 -11.855109 -77.069088 -11.826984 -34.784200 20.044621 52.932300 32.382828 -2.941826 4.701329 9.948017 -6.768905 -19.883369 0.000000 0.000000 0.000000 -10.763858 -76.644476 -10.917629 -38.818181 17.063230 -22.670330 58.336905 -6.428649 1.714430 -15.741385 2.756158 15.633082 0.000000 0.000000 0.000000 -11.136962 -76.555158 -11.521517 -0.560432 0.370345 0.189496 0.371888 5.196653 3.430329 5.181116 -4.399809 1.796826 0.000000 0.000000 0.000000 1.287300 -2.425378 0.617820 2.984216 4.062005 1.444987 0.000000 0.000000 0.000000 5.131525 -2.972339 1.118043 -9.614574 -5.358562 -17.980717 3.225542 -21.500034 -20.905204 -18.715647 -59.329270 -17.473681 0.000000 0.000000 0.000000 -0.361028 -2.373655 -0.367698 17.510879 15.097281 1.856543 -6.485399 50.188794 31.338503 12.480889 52.451096 -11.461115 0.000000 0.000000 0.000000 
-8.758648 81.649757 13.514759 0.000000 0.000000 0.000000 -10.722749 -75.560989 -10.184988 -33.069904 19.320467 51.652162 31.254348 -3.674766 5.087653 8.397257 -8.298935 -22.225374 0.000000 0.000000 0.000000 -9.682554 -74.955439 -9.418325 -36.010161 16.829731 -22.247227 56.229502 -8.503040 0.754817 -15.266472 1.530250 14.704146 0.000000 0.000000 0.000000 -9.892864 -74.980505 -9.811198 -0.568023 0.304725 0.224739 0.383283 4.235695 2.992858 5.218484 -4.683341 2.336643 0.000000 0.000000 0.000000 1.535890 -2.730102 1.188624 2.770998 4.088423 1.125053 0.000000 0.000000 0.000000 4.838655 -3.292716 1.612718 -10.013950 -6.090183 -18.112166 13.566458 -28.417200 -15.224205 -26.262021 -68.612549 -24.308507 0.000000 0.000000 0.000000 -0.782750 -2.642341 0.412417 16.209994 14.048913 4.649087 -3.757088 46.058950 31.623277 10.405110 49.302389 -5.654575 0.000000 0.000000 0.000000 
-8.723265 82.005707 14.073635 0.000000 0.000000 0.000000 -8.509422 -73.965403 -7.478376 -31.821134 18.216627 50.496746 29.343825 -4.152434 5.345338 7.419062 -9.873990 -24.983531 0.000000 0.000000 0.000000 -7.783277 -73.062014 -7.059539 -33.336965 16.932915 -22.348808 53.721036 -10.232215 -0.778466 -12.227741 0.721449 13.783424 0.000000 0.000000 0.000000 -7.958337 -73.211158 -7.257794 -0.572797 0.247930 0.243560 0.351786 2.888667 2.465513 5.165438 -5.214651 2.917457 0.000000 0.000000 0.000000 1.670267 -3.248198 1.782693 2.376877 4.113539 0.798883 0.000000 0.000000 0.000000 4.632750 -3.853442 2.167746 -10.411168 -7.262139 -16.586086 21.405825 -36.310618 -6.152082 -44.381442 -76.822006 -41.405700 0.000000 0.000000 0.000000 -0.973131 -3.133199 1.253920 15.377244 12.655573 6.923740 -1.482881 43.016702 31.402563 8.466016 46.488761 0.234757 0.000000 0.000000 0.000000 
-8.571133 82.299751 14.630253 0.000000 0.000000 0.000000 -5.673159 -72.549101 -4.249221 -30.891416 17.079110 49.628776 26.604826 -4.148013 5.466664 7.232287 -11.244492 -27.519210 0.000000 0.000000 0.000000 -5.580157 -71.419340 -4.444456 -30.802685 16.880954 -22.915901 50.553819 -11.485510 -2.445587 -8.254992 -0.017503 12.599913 0.000000 0.000000 0.000000 -5.568188 -71.543472 -4.262994 -0.579042 0.224716 0.225891 0.356138 1.256533 1.931390 5.011901 -6.002302 3.541302 0.000000 0.000000 0.000000 1.479060 -4.036061 2.386870 1.792265 4.149305 0.548127 0.000000 0.000000 0.000000 4.529067 -4.666069 2.811639 -10.595919 -8.513097 -12.931224 26.658466 -45.528678 4.992687 -83.687330 -80.936027 -79.261982 0.000000 0.000000 0.000000 -0.936629 -3.888607 2.092346 15.110931 10.977443 8.767701 -0.386856 41.047422 30.681220 6.658722 44.279164 6.104785 0.000000 0.000000 0.000000 
